<svg xmlns="http://www.w3.org/2000/svg" width="256" height="256" viewBox="0 0 100 100"><rect width="100" height="100" rx="50" fill="#6574cd"></rect><path d="M48.40 76.24L31.68 76.24L31.68 23.76L47.28 23.76Q51.28 23.76 54.60 24.48Q57.92 25.20 60.28 26.72Q62.64 28.24 63.96 30.68Q65.28 33.12 65.28 36.56L65.28 36.56Q65.28 40.48 63.32 43.64Q61.36 46.80 57.60 48.00L57.60 48.00L57.60 48.32Q62.40 49.20 65.36 52.32Q68.32 55.44 68.32 60.88L68.32 60.88Q68.32 64.72 66.88 67.60Q65.44 70.48 62.80 72.40Q60.16 74.32 56.48 75.28Q52.80 76.24 48.40 76.24L48.40 76.24ZM38.32 29.04L38.32 46.08L46.08 46.08Q52.80 46.08 55.76 43.76Q58.72 41.44 58.72 37.44L58.72 37.44Q58.72 32.88 55.64 30.96Q52.56 29.04 46.40 29.04L46.40 29.04L38.32 29.04ZM38.32 51.20L38.32 70.96L47.44 70.96Q54.24 70.96 58 68.44Q61.76 65.92 61.76 60.64L61.76 60.64Q61.76 55.76 58.08 53.48Q54.40 51.20 47.44 51.20L47.44 51.20L38.32 51.20Z" fill="#fff"></path></svg>